<?xml version="1.0" encoding="UTF-8" standalone="no"?>
<svg
   xmlns:dc="http://purl.org/dc/elements/1.1/"
   xmlns:cc="http://creativecommons.org/ns#"
   xmlns:rdf="http://www.w3.org/1999/02/22-rdf-syntax-ns#"
   xmlns:svg="http://www.w3.org/2000/svg"
   xmlns="http://www.w3.org/2000/svg"
   xmlns:sodipodi="http://sodipodi.sourceforge.net/DTD/sodipodi-0.dtd"
   xmlns:inkscape="http://www.inkscape.org/namespaces/inkscape"
   sodipodi:docname="disabled.svg"
   id="svg8"
   preserveAspectRatio="xMidYMid meet"
   viewBox="0 0 406.12076 409.65332"
   height="409.65332pt"
   width="406.12076pt"
   version="1.0"
   inkscape:version="1.0.2 (e86c870879, 2021-01-15)">
  <defs
     id="defs12">
    <inkscape:path-effect
       effect="spiro"
       id="path-effect1065"
       is_visible="true"
       lpeversion="1" />
    <inkscape:path-effect
       effect="bspline"
       id="path-effect986"
       is_visible="true"
       lpeversion="1"
       weight="33.333333"
       steps="2"
       helper_size="0"
       apply_no_weight="true"
       apply_with_weight="true"
       only_selected="false" />
  </defs>
  <sodipodi:namedview
     inkscape:current-layer="svg8"
     inkscape:window-maximized="1"
     inkscape:window-y="0"
     inkscape:window-x="2880"
     inkscape:cy="245.0256"
     inkscape:cx="72.734947"
     inkscape:zoom="3.0761371"
     showgrid="false"
     id="namedview10"
     inkscape:window-height="2057"
     inkscape:window-width="3840"
     inkscape:pageshadow="2"
     inkscape:pageopacity="0"
     guidetolerance="10"
     gridtolerance="10"
     objecttolerance="10"
     borderopacity="1"
     bordercolor="#666666"
     pagecolor="#ffffff"
     inkscape:document-rotation="0"
     fit-margin-top="0"
     fit-margin-left="0"
     fit-margin-right="0"
     fit-margin-bottom="0"
     inkscape:snap-global="true" />
  <metadata
     id="metadata2">
Created by potrace 1.16, written by Peter Selinger 2001-2019
<rdf:RDF>
  <cc:Work
     rdf:about="">
    <dc:format>image/svg+xml</dc:format>
    <dc:type
       rdf:resource="http://purl.org/dc/dcmitype/StillImage" />
    <dc:title />
  </cc:Work>
</rdf:RDF>
</metadata>
  <path
     id="path4529"
     style="fill:#333333;stroke:none;stroke-width:0.133333"
     d="M 207.47656 56.160156 C 207.35043 56.163223 207.24012 56.191667 207.14844 56.25 C 206.34844 56.65 205.0154 60.25104 204.08203 63.984375 C 203.14856 67.851063 201.14738 73.583723 199.41406 76.650391 C 197.81406 79.850405 196.74703 82.384766 197.01367 82.384766 C 197.41367 82.384766 196.34879 84.383723 194.61523 86.650391 C 191.81523 90.650405 191.28211 92.117709 190.61523 97.984375 C 190.4819 98.917728 189.94792 99.716797 189.28125 99.716797 C 188.74792 99.716797 188.21484 100.91758 188.21484 102.51758 C 188.21484 103.98424 187.68035 104.91758 187.01367 104.51758 C 186.34703 104.11758 185.54703 104.65012 185.01367 105.7168 C 184.61367 106.78346 183.54879 107.45026 182.61523 107.18359 C 181.68191 107.05026 181.28059 107.04973 181.94727 107.31641 C 182.48059 107.71641 182.88086 109.58399 182.88086 111.58398 C 182.88086 113.71732 184.215 116.91795 185.68164 118.91797 C 189.54832 123.85129 187.14844 126.38347 183.14844 121.7168 C 181.54844 119.85014 180.6146 118.38477 181.28125 118.38477 C 181.8146 118.38477 180.74753 117.18347 178.88086 115.7168 C 177.01418 114.25014 173.4147 113.05078 170.74805 113.05078 C 168.08138 113.05078 165.54844 112.65053 165.14844 112.11719 C 163.81512 110.9172 132.34843 110.78413 133.14844 111.98438 C 133.41511 112.65106 129.14832 113.05078 123.68164 113.05078 C 117.81498 113.05078 113.54883 113.58477 113.54883 114.38477 C 113.54883 115.31073 112.49827 115.71819 111.19727 115.7207 L 111.19727 117.05078 L 109.54883 117.05078 L 109.54883 119.91016 L 109.27344 119.91016 L 109.27344 122.04492 L 131.45898 127.88086 C 134.2292 128.30331 137.78146 129.08308 140.68164 129.95312 C 144.68164 131.15338 151.74883 133.28725 156.54883 134.75391 C 165.08216 137.28725 165.08242 137.28566 159.48242 137.15234 C 156.28242 137.15234 153.48151 136.75402 153.21484 136.2207 C 152.94819 135.82056 142.81499 135.55363 130.68164 135.82031 C 116.88966 136.12014 110.13609 135.99789 108.19141 134.74414 L 59.578125 134.74414 A 244.56656 248.84016 0 0 0 10.650391 258.57422 L 10.650391 311.09766 A 244.56656 248.84016 0 0 0 26.990234 378.69336 L 27.134766 378.69336 L 27.134766 379.02148 A 244.56656 248.84016 0 0 0 107.09766 484.45898 L 144.23438 484.45898 L 144.23438 509.67578 L 194.58594 509.67578 L 194.58594 484.45898 L 195.98633 484.45898 C 194.50307 483.62806 194.64675 480.52755 194.48047 471.05078 C 194.10239 455.67544 194.79628 446.02295 196.22461 445.79883 L 196.99023 441.49609 C 196.78125 439.74734 196.84257 438.33675 197.28125 438.11719 C 197.45328 438.03118 197.7437 437.66511 198.07422 437.19336 L 200.61133 428.25195 C 199.8014 426.65345 202.06389 419.00462 205.14844 413.7168 L 206.17383 412.00586 L 207.29688 409.19922 C 207.26733 408.49218 207.59299 407.74807 208.34766 406.91797 C 209.28098 405.71794 210.74883 403.44961 211.54883 401.84961 C 212.09076 400.99801 212.76568 400.24699 213.39453 399.81055 L 218.19336 393.45898 C 218.5415 392.40019 219.33173 391.18403 220.48047 390.11719 C 224.21382 386.51719 224.34738 385.05075 221.41406 382.11719 C 221.37533 382.07458 221.33583 382.04254 221.29688 382.00195 L 218.85742 383.19141 C 218.86746 383.23264 218.88086 383.27326 218.88086 383.31641 C 218.88086 384.54677 214.78791 386.48041 212.22656 386.88672 L 210.2832 387.89648 C 210.5097 388.66334 209.81746 389.05078 208.34766 389.05078 C 206.88098 389.05078 204.88164 389.98411 203.68164 391.05078 C 202.74593 391.98653 201.19431 392.5108 200.10742 392.35547 L 198.02539 393.52539 C 198.19425 394.26946 198.16185 394.44761 197.81445 393.98438 C 197.76659 393.86462 197.68001 393.80716 197.57812 393.77734 L 196.11133 394.60156 C 195.8379 394.87671 195.55517 395.20734 195.28125 395.58398 C 193.64663 398.03594 190.78732 399.36388 191.17578 397.86523 A 2.8543134 3.6281425 0 0 1 188.6543 394.26367 A 2.8543134 3.6281425 0 0 1 191.05273 390.68359 C 191.08639 390.43455 191.66989 390.32123 192.88086 390.25 C 194.34753 390.11664 196.48217 389.98379 197.54883 390.11719 C 200.74883 390.25075 207.01484 386.38307 208.21484 383.31641 C 208.92332 381.59582 209.23478 381.18285 209.34766 381.81641 A 1.3524346 1.5449992 0 0 1 209.61719 381.5957 A 2.7033738 2.063808 0 0 1 211.96875 380.54883 A 2.7033738 2.063808 0 0 1 212.62891 380.61328 C 215.64153 377.21219 224.78289 372.86065 230.88086 372.65039 C 232.74753 372.51704 234.61367 371.98307 235.01367 371.31641 C 236.08035 369.84974 255.01551 368.5173 259.54883 369.58398 C 260.57843 369.82624 261.34643 370.18154 261.85547 370.59375 A 16.290203 7.2359585 21.075696 0 1 265.16211 371.26562 A 16.290203 7.2359585 21.075696 0 1 268.76562 372.40625 C 271.57362 372.73691 276.52229 374.41407 282.61523 377.18359 C 292.54551 381.66424 298.16581 385.48004 298.41797 387.8418 L 300.77539 390.22656 C 302.15376 390.44677 302.88086 391.21711 302.88086 392.51758 C 302.88086 395.05092 295.0147 403.7168 292.74805 403.7168 C 290.74805 403.7168 286.74777 408.38449 287.81445 409.45117 C 288.21445 409.98449 289.81512 410.38477 291.14844 410.38477 C 292.61512 410.38477 293.41512 410.78307 293.14844 411.31641 C 292.74844 411.98307 295.81395 412.51704 299.94727 412.65039 C 304.21395 412.78372 310.08177 413.3168 313.14844 413.7168 C 318.34844 414.65016 318.6146 414.91625 317.28125 417.84961 C 316.46802 419.47606 314.84576 420.9987 313.29492 421.62891 L 310.44531 425.20117 C 310.00435 427.30499 307.38724 431.15805 304.08203 434.25 L 301.28125 436.7832 L 304.21484 437.7168 C 307.2815 438.65016 311.0146 437.45066 323.28125 431.58398 C 326.90921 429.77001 329.6472 428.73863 330.14648 428.87695 A 16.745433 10.191283 0 0 1 334.31641 427.07617 C 334.55179 426.72592 334.91225 426.39323 335.41406 426.11719 C 336.61406 425.45055 337.28086 424.38398 336.88086 423.58398 C 336.25723 422.61389 337.29738 422.73603 338.69531 423.36523 A 12.825594 10.596643 0 0 1 344.0293 419.97656 C 344.42507 419.4688 345.42143 418.48939 346.88086 417.18359 C 348.56799 415.67405 350.71911 414.35611 352.52539 413.63477 A 14.101481 10.246752 0 0 1 355.29883 410.7832 C 355.28336 410.7028 355.36137 410.65721 355.50586 410.63477 A 14.101481 10.246752 0 0 1 358.54492 409.02344 L 359.67188 407.89648 C 360.08147 407.18904 360.65493 406.36212 361.41406 405.45117 C 362.21145 404.50879 363.32483 403.69289 364.45312 403.11523 L 382.46875 385.09961 C 382.96886 383.85366 383.98152 382.42512 385.54883 380.7832 C 386.59103 379.68299 387.44131 378.90679 388.05469 378.46484 A 8.3535114 10.226679 0 0 1 391.83398 372.43359 C 391.22477 370.68937 389.69079 371.00234 385.94727 372.51758 C 383.45453 373.60815 382.23754 374.05654 381.2832 373.79297 A 45.000413 44.692646 60.209761 0 1 356.22852 380.36133 A 45.000413 44.692646 60.209761 0 1 331.31641 371.60547 C 325.26705 367.8699 318.88086 362.19791 318.88086 360.11719 C 318.88086 359.45055 316.74818 356.91809 314.21484 354.38477 C 311.47771 351.76663 310.34279 349.89695 310.69727 348.76562 A 25.364427 23.459092 0 0 1 302.63281 335.43555 C 302.51148 335.04189 302.47426 334.92904 302.34766 334.51758 C 301.43532 331.8313 301.99114 328.1075 303.20898 324.8125 A 25.364427 23.459092 0 0 1 309.58008 314.75195 C 309.37902 313.86993 309.94456 313.15694 311.10742 313.44141 A 25.364427 23.459092 0 0 1 313.97656 311.47656 C 316.15975 308.6269 322.02203 303.7168 323.81445 303.7168 C 324.74777 303.7168 325.54883 303.18374 325.54883 302.65039 C 325.54883 301.98374 329.81418 299.31706 334.88086 296.65039 C 335.00553 296.58652 335.10711 296.54118 335.23047 296.47852 A 45.000413 44.692646 60.209761 0 1 346.04688 292.02539 C 346.62289 289.10394 362.36227 287.24741 379.54883 288.38477 C 386.24247 288.74175 390.66256 289.21829 392.53516 289.73438 A 5.0838399 2.1675039 0 0 1 395.08203 289.44336 A 5.0838399 2.1675039 0 0 1 399.88477 290.89844 A 5.0838399 2.1675039 0 0 1 399.88672 290.89844 C 400.09829 291.00857 400.21484 291.15015 400.21484 291.31641 C 400.21484 291.98306 401.54703 292.51758 403.01367 292.51758 C 404.61367 292.38424 406.21383 293.18387 406.48047 294.11719 C 406.60714 294.45503 406.62863 294.70342 406.57227 294.88086 A 3.8799449 4.4595508 0 0 1 407.30469 297.49023 A 3.8799449 4.4595508 0 0 1 405.18945 301.45898 C 405.17879 302.18113 405.07559 302.82958 404.88086 303.31641 C 404.21418 304.64973 403.54792 307.31693 403.28125 309.18359 C 402.88125 312.38359 403.14818 312.65105 406.21484 311.98438 C 408.0815 311.71744 410.21367 310.24986 411.01367 308.7832 C 411.71279 307.50133 412.92211 306.72945 413.92773 306.82227 L 416.22656 305.00195 C 417.15176 302.79261 419.84475 299.7168 421.28125 299.7168 C 422.48125 299.7168 422.74872 301.31744 422.08203 305.98438 C 421.68188 309.58437 420.74872 312.51636 420.08203 312.7832 C 419.85669 312.87332 419.6581 313.03628 419.47852 313.22266 A 0.89734042 4.167247 29.516622 0 1 419.39062 313.38086 A 0.89734042 4.167247 29.516622 0 1 418.95508 314.11133 C 418.91667 314.24798 418.88086 314.38625 418.88086 314.51758 C 418.88086 315.85094 418.21445 316.78359 409.81445 329.18359 C 406.70095 333.80359 405.93757 335.0171 407.00195 335.33594 A 10.621183 8.0545181 0 0 1 413.00586 333.65234 C 412.94186 333.25164 413.17316 332.80933 413.68164 332.25 C 414.87803 330.79724 416.34208 330.17281 416.89258 330.50391 L 430.10938 322.87305 C 430.41036 322.27986 431.40003 321.49569 432.74805 320.91797 C 436.88138 319.05129 445.68188 310.78413 454.08203 301.05078 C 457.54872 297.05078 461.81406 292.25142 463.41406 290.38477 C 465.1474 288.51809 467.14856 285.71741 468.08203 284.11719 C 468.56823 283.14485 469.16312 282.46864 469.79102 282.09375 L 473.26172 275.85352 C 473.44466 274.29668 473.88502 273.49395 474.52148 273.58789 L 481.97266 260.18945 C 481.69397 259.52311 481.99373 258.18732 482.88086 256.11719 C 483.94753 253.71719 485.14831 252.11758 485.68164 252.51758 C 486.21499 252.78426 487.01551 250.91664 487.54883 248.25 C 488.21551 244.65 487.81395 242.78374 485.94727 240.65039 C 481.6806 235.58374 479.68098 234.38461 476.34766 234.91797 C 474.6143 235.18461 469.54844 233.98332 465.14844 232.25 C 464.40702 231.95792 463.66103 231.69108 462.91602 231.41992 L 462.76562 231.82422 L 455.60742 229.16992 C 455.24922 229.10024 454.93939 229.05078 454.74805 229.05078 C 453.47726 229.05078 451.72999 228.32006 450.64453 227.32812 L 446.49023 225.78711 C 446.25973 225.7943 446.03341 225.81311 445.81445 225.84961 C 444.34777 226.24961 442.74766 225.98359 442.34766 225.18359 C 442.11129 224.82906 442.12194 224.50554 442.31055 224.23828 L 435.41602 221.68164 C 435.37425 221.6948 435.31751 221.70126 435.28125 221.7168 C 434.67155 221.92004 433.90892 221.57854 433.40234 220.93359 L 415.44336 214.27344 C 414.37897 214.43956 411.25499 213.37774 405.28125 210.91797 C 400.61458 209.05129 395.41551 206.78409 393.54883 206.11719 C 391.68219 205.31719 389.14727 204.25066 387.94727 203.58398 C 386.61395 202.91732 384.21547 202.38477 382.61523 202.38477 C 380.10443 202.38477 379.95652 202.11933 381.51172 201.07617 L 379.66602 200.56836 C 376.73422 201.14366 376.17468 200.65324 375.01367 196.7832 C 374.34703 194.38304 373.68164 193.18412 373.68164 193.98438 C 373.54831 194.91769 372.88204 195.7168 372.08203 195.7168 C 371.41524 195.7168 371.14831 195.05 371.68164 194.25 C 372.08164 193.45 371.8147 192.25016 370.74805 191.7168 C 369.8147 191.05016 368.88138 189.58332 368.74805 188.25 C 368.48138 186.91664 367.54805 184.38374 366.74805 182.65039 C 365.7834 180.9842 365.46655 180.07236 365.80859 179.375 L 365.05469 175.38281 C 364.72904 174.89321 364.43414 174.33084 364.21484 173.7168 C 363.54818 171.85016 361.81547 169.98449 360.61523 169.45117 C 359.28191 169.05117 356.4815 167.3168 354.21484 165.7168 C 352.0815 164.1168 349.14777 162.51769 347.81445 161.98438 C 346.94767 161.5989 346.22648 160.93531 345.93945 160.29492 L 343.83594 159.24219 C 343.88049 160.34067 341.31468 159.48461 339.01367 157.18359 C 337.54703 155.71693 336.08164 154.91641 335.68164 155.31641 C 335.28164 155.84974 333.6815 155.05016 332.21484 153.7168 C 330.74818 152.38348 328.48177 151.18413 327.14844 151.05078 C 323.14844 150.51745 312.08125 144.91796 311.28125 142.91797 C 310.88125 141.85129 309.4154 141.05078 308.08203 141.05078 C 305.81524 141.05078 300.61418 138.78413 298.88086 137.05078 C 297.94753 136.11745 287.2806 131.05078 281.94727 129.05078 C 279.54727 128.11744 277.94766 126.91666 278.34766 126.25 C 278.74766 125.5833 278.08035 125.05078 277.01367 125.05078 C 275.81367 125.05078 272.8815 123.85144 270.21484 122.38477 C 267.54818 120.91811 264.74777 119.7168 263.81445 119.7168 C 261.54777 119.7168 254.48047 111.98307 252.48047 107.31641 C 251.54715 105.18307 250.21406 103.98424 249.41406 104.51758 C 248.41803 105.0156 248.39172 104.53161 249.25586 102.84375 L 242.30273 94.652344 C 242.35609 94.864439 242.40799 95.074818 242.48047 95.316406 C 243.01383 96.78307 242.88109 97.184242 241.81445 96.517578 C 240.88109 95.984242 240.21484 94.118098 240.21484 92.384766 C 240.21484 92.3175 240.20706 92.249226 240.20508 92.181641 L 238.4043 90.0625 C 238.10732 90.770864 236.38343 90.215831 235.01367 88.650391 C 234.21367 87.583723 234.08191 86.382943 234.61523 85.849609 C 234.65897 85.805889 234.68946 85.76435 234.72266 85.722656 L 234.1582 85.058594 C 230.00906 85.921362 226.66068 81.765554 229.62695 79.720703 L 227.9375 77.730469 C 227.66957 78.134456 227.23482 78.384766 226.74805 78.384766 C 225.94805 78.384766 225.54727 77.45091 225.94727 76.517578 C 226.07891 76.155563 226.15192 75.868404 226.16797 75.646484 L 225.68359 75.074219 C 225.4288 75.06893 225.08186 75.146748 224.61523 75.316406 C 223.01523 75.98307 222.61458 75.583855 223.28125 74.117188 C 223.81458 72.650494 223.14792 71.716406 221.28125 71.316406 C 219.81458 70.916406 219.01406 69.983594 219.41406 69.183594 C 219.62504 68.867134 219.74641 68.515694 219.80273 68.146484 L 215.61328 63.210938 C 215.45766 63.230746 215.30156 63.262813 215.14844 63.316406 C 213.94844 63.716406 213.28164 63.716932 213.68164 63.183594 C 214.80664 61.933595 209.36912 56.113795 207.47656 56.160156 z M 345.53906 194.35156 C 347.88438 194.37503 350.81523 194.7875 353.61523 195.6875 C 354.54879 195.95417 355.08164 196.75324 354.68164 197.41992 C 354.015 198.35324 362.28177 200.08581 370.14844 200.61914 C 371.34844 200.75247 372.14805 201.15417 371.74805 201.6875 C 371.48138 202.22083 372.01445 203.02043 372.81445 203.28711 C 373.74777 203.68711 373.0815 204.08722 371.21484 204.2207 C 369.34818 204.35404 368.68191 204.75234 369.61523 205.15234 C 370.81547 205.55234 369.88266 207.28686 366.41602 210.35352 C 361.88266 214.62018 361.215 214.75285 358.68164 213.01953 C 357.08164 211.95285 355.88231 209.95352 356.01562 208.35352 C 356.01562 206.75352 355.34934 205.55273 354.41602 205.55273 C 353.48266 205.55273 351.74832 204.21914 350.68164 202.61914 C 349.48164 201.01914 348.54883 200.08727 348.54883 200.75391 C 348.54883 201.42059 347.61551 201.15402 346.54883 200.2207 C 345.60543 199.51301 344.97831 198.28666 344.9375 197.55078 A 2.0723526 1.6404378 0 0 1 343.56836 197.95898 A 2.0723526 1.6404378 0 0 1 341.55273 196.69727 C 339.66107 195.22028 341.88909 194.31508 345.53906 194.35156 z M 197.66602 353.86914 C 198.34934 353.81914 199.14753 353.88567 199.88086 354.08594 C 201.34753 354.48594 208.81551 354.88673 216.54883 354.88672 C 224.28217 354.88672 229.88204 355.41979 229.08203 355.95312 C 228.28188 356.4867 227.08217 359.01941 226.54883 361.55273 C 225.88217 364.08605 225.21587 365.55247 224.94922 364.61914 C 224.68254 363.68581 223.48125 363.42031 222.28125 363.82031 C 220.94792 364.35365 220.41587 364.08711 220.94922 363.28711 C 222.54922 360.62043 218.0146 358.61914 210.28125 358.61914 C 206.0146 358.61914 202.01484 358.75337 201.21484 358.88672 C 197.04161 359.74591 177.43513 358.90841 174.85938 357.83398 A 0.87573787 4.7172409 87.459154 0 1 171.73438 358.13867 A 0.87573787 4.7172409 87.459154 0 1 170.63086 358.14844 C 171.15909 358.7201 170.4265 358.88673 168.14844 358.88672 C 165.61512 358.88672 164.54922 358.35234 164.94922 357.15234 C 165.34922 356.08566 169.74793 355.55324 180.28125 355.41992 C 188.54792 355.41992 195.61512 354.88686 196.14844 354.35352 C 196.41512 354.08686 196.98266 353.91914 197.66602 353.86914 z M 171.61523 356.2207 C 169.83792 356.2207 169.01636 356.3259 168.98242 356.64062 A 4.1895184 0.12779259 0 0 1 169.48633 356.625 A 0.87573787 4.7172409 87.459154 0 1 172.33984 356.36328 A 0.87573787 4.7172409 87.459154 0 1 173.22461 356.35156 C 172.768 356.26941 172.23052 356.22066 171.61523 356.2207 z "
     transform="scale(0.75000003)" />
  <path
     style="fill:#ff0000;fill-opacity:1;stroke:#000000;stroke-width:0.388509;stroke-opacity:1"
     d="m 358.67683,212.73597 c -1.65869,-1.30623 -2.2576,-2.38779 -2.46792,-4.45679 -0.18231,-1.79348 -0.8827,-2.64173 -2.81469,-3.40891 -0.50879,-0.20204 -1.70216,-1.32104 -2.65193,-2.48667 -1.31612,-1.61525 -1.8644,-2.04199 -2.30514,-1.79418 -0.70267,0.39508 -2.54179,-0.89335 -3.02943,-2.12233 -0.24358,-0.6139 -0.62104,-0.8047 -1.6312,-0.82454 -1.35842,-0.0267 -2.6705,-1.15254 -2.49079,-2.13725 0.2504,-1.37201 8.12385,-1.20836 11.78462,0.24494 0.75821,0.30101 1.24113,0.80125 1.35189,1.40039 0.24048,1.30082 2.76784,2.03191 10.94413,3.16579 3.88198,0.53835 6.45385,1.03568 6.29073,1.21646 -0.35672,0.39535 -0.0661,1.0582 0.75563,1.72355 0.5803,0.46986 0.47687,0.55203 -0.9238,0.73395 -1.83715,0.23859 -2.70151,0.7036 -2.03598,1.0953 0.77805,0.45793 0.25748,1.5478 -1.76977,3.70519 -2.70545,2.87913 -6.00048,5.26406 -6.99288,5.06142 -0.44251,-0.0904 -1.34857,-0.5927 -2.01347,-1.11632 z"
     id="path962"
     transform="scale(0.75000003)" />
  <path
     style="fill:#380000;fill-opacity:1;stroke:#fe0000;stroke-width:0.75;stroke-opacity:1"
     d="M 140.6614,9.2460644 A 205.29313,201.76739 72.304982 0 0 10.838855,266.15398 205.29313,201.76739 72.304982 0 0 265.45935,400.40727 205.29313,201.76739 72.304982 0 0 395.2819,143.49937 205.29313,201.76739 72.304982 0 0 140.6614,9.2460644 Z m 5.68017,16.9217546 A 186.63013,183.42491 72.304982 0 1 377.81437,148.21586 186.63013,183.42491 72.304982 0 1 259.79397,381.76791 186.63013,183.42491 72.304982 0 1 28.321157,259.71988 186.63013,183.42491 72.304982 0 1 146.34157,26.167819 Z"
     id="path4762" />
</svg>
